<svg width="18" height="17" viewBox="0 0 18 17" fill="none" xmlns="http://www.w3.org/2000/svg">
<rect x="0.75" y="0.25" width="16.5" height="16.5" rx="8.25" fill="#555555"/>
<rect x="0.75" y="0.25" width="16.5" height="16.5" rx="8.25" stroke="#555555" stroke-width="0.5"/>
<path d="M8.375 10.6875H10.875V11.3125H8.375V10.6875ZM7.125 10.6875H7.75V11.3125H7.125V10.6875ZM8.375 9.125H10.875V9.75H8.375V9.125ZM7.125 9.125H7.75V9.75H7.125V9.125ZM8.375 7.5625H10.875V8.1875H8.375V7.5625ZM7.125 7.5625H7.75V8.1875H7.125V7.5625Z" fill="white"/>
<path d="M11.8125 5.0625H10.875V4.75C10.875 4.58424 10.8092 4.42527 10.6919 4.30806C10.5747 4.19085 10.4158 4.125 10.25 4.125H7.75C7.58424 4.125 7.42527 4.19085 7.30806 4.30806C7.19085 4.42527 7.125 4.58424 7.125 4.75V5.0625H6.1875C6.02174 5.0625 5.86277 5.12835 5.74556 5.24556C5.62835 5.36277 5.5625 5.52174 5.5625 5.6875V12.25C5.5625 12.4158 5.62835 12.5747 5.74556 12.6919C5.86277 12.8092 6.02174 12.875 6.1875 12.875H11.8125C11.9783 12.875 12.1372 12.8092 12.2544 12.6919C12.3717 12.5747 12.4375 12.4158 12.4375 12.25V5.6875C12.4375 5.52174 12.3717 5.36277 12.2544 5.24556C12.1372 5.12835 11.9783 5.0625 11.8125 5.0625ZM7.75 4.75H10.25V6H7.75V4.75ZM11.8125 12.25H6.1875V5.6875H7.125V6.625H10.875V5.6875H11.8125V12.25Z" fill="white"/>
</svg>
