<svg width="18" height="17" viewBox="0 0 18 17" fill="none" xmlns="http://www.w3.org/2000/svg">
<rect x="0.75" y="0.25" width="16.5" height="16.5" rx="8.25" fill="#555555"/>
<rect x="0.75" y="0.25" width="16.5" height="16.5" rx="8.25" stroke="#555555" stroke-width="0.5"/>
<path d="M9 4C7.618 4 6.5 5.118 6.5 6.5C6.5 6.59946 6.53951 6.69484 6.60983 6.76516C6.68016 6.83549 6.77554 6.875 6.875 6.875C6.97446 6.875 7.06984 6.83549 7.14016 6.76516C7.21049 6.69484 7.25 6.59946 7.25 6.5C7.25 5.532 8.032 4.75 9 4.75C9.968 4.75 10.75 5.532 10.75 6.5C10.75 6.926 10.639 7.21 10.4855 7.43C10.3235 7.6615 10.102 7.8415 9.8345 8.046L9.7655 8.0985C9.2605 8.4825 8.625 8.9655 8.625 10V10.125C8.625 10.2245 8.66451 10.3198 8.73484 10.3902C8.80516 10.4605 8.90054 10.5 9 10.5C9.09946 10.5 9.19484 10.4605 9.26516 10.3902C9.33549 10.3198 9.375 10.2245 9.375 10.125V10C9.375 9.3415 9.732 9.0685 10.2675 8.659L10.2905 8.6415C10.554 8.44 10.864 8.198 11.1005 7.8595C11.3455 7.509 11.5 7.0745 11.5 6.5C11.5 5.118 10.382 4 9 4ZM9 12.5C9.13261 12.5 9.25979 12.4473 9.35355 12.3536C9.44732 12.2598 9.5 12.1326 9.5 12C9.5 11.8674 9.44732 11.7402 9.35355 11.6464C9.25979 11.5527 9.13261 11.5 9 11.5C8.86739 11.5 8.74021 11.5527 8.64645 11.6464C8.55268 11.7402 8.5 11.8674 8.5 12C8.5 12.1326 8.55268 12.2598 8.64645 12.3536C8.74021 12.4473 8.86739 12.5 9 12.5Z" fill="white"/>
</svg>
